<?xml version="1.0" encoding="UTF-8" standalone="no"?>
<svg
   xmlns:dc="http://purl.org/dc/elements/1.1/"
   xmlns:cc="http://creativecommons.org/ns#"
   xmlns:rdf="http://www.w3.org/1999/02/22-rdf-syntax-ns#"
   xmlns:svg="http://www.w3.org/2000/svg"
   xmlns="http://www.w3.org/2000/svg"
   version="1.1"
   id="svg6601"
   viewBox="0 0 744.09449 1052.3622"
   height="100"
   width="100">
  <defs
     id="defs6603" />
  <metadata
     id="metadata6606">
    <rdf:RDF>
      <cc:Work
         rdf:about="">
        <dc:format>image/svg+xml</dc:format>
        <dc:type
           rdf:resource="http://purl.org/dc/dcmitype/StillImage" />
        <dc:title></dc:title>
      </cc:Work>
    </rdf:RDF>
  </metadata>
  <g
     id="layer1">
    <path
       d="M 893.70673,526.18109 A 521.65924,521.65948 0 0 1 374.61272,1047.8343 521.65924,521.65948 0 0 1 -149.58653,531.31151 521.65924,521.65948 0 0 1 364.35202,4.5783709 521.65924,521.65948 0 0 1 893.60581,515.92076"
       id="path7232"
       style="opacity:1;fill:#2893cb;fill-opacity:1;fill-rule:nonzero;stroke:#000000;stroke-width:9.04315853;stroke-linecap:butt;stroke-linejoin:bevel;stroke-opacity:0" />
    <flowRoot
       transform="matrix(7.015748,0,0,7.015748,-154.13385,0)"
       style="font-style:normal;font-weight:normal;font-size:40px;line-height:125%;font-family:sans-serif;letter-spacing:0px;word-spacing:0px;fill:#ffffff;fill-opacity:1;stroke:none;stroke-width:1px;stroke-linecap:butt;stroke-linejoin:miter;stroke-opacity:1;"
       id="flowRoot7234"
       xml:space="preserve"><flowRegion
         id="flowRegion7236"><rect
           style="fill:#ffffff;fill-opacity:1"
           y="0.48240766"
           x="-0.30205554"
           height="149.51759"
           width="149.51759"
           id="rect7238" /></flowRegion><flowPara
         style="font-size:180.00000032px"
         id="flowPara7240">t</flowPara></flowRoot>    <flowRoot
       transform="matrix(7.015748,0,0,7.015748,-154.13385,0)"
       style="font-style:normal;font-weight:normal;font-size:40px;line-height:125%;font-family:sans-serif;letter-spacing:0px;word-spacing:0px;fill:#000000;fill-opacity:1;stroke:none;stroke-width:1px;stroke-linecap:butt;stroke-linejoin:miter;stroke-opacity:1"
       id="flowRoot7242"
       xml:space="preserve"><flowRegion
         id="flowRegion7244"><rect
           y="14.679028"
           x="31.715853"
           height="119.61407"
           width="93.637283"
           id="rect7246" /></flowRegion><flowPara
         id="flowPara7248" /></flowRoot>    <g
       id="flowRoot7250"
       style="font-style:normal;font-variant:normal;font-weight:500;font-stretch:normal;font-size:180px;line-height:125%;font-family:'Apple Chancery';-inkscape-font-specification:'Apple Chancery, Medium';text-align:start;letter-spacing:0px;word-spacing:0px;writing-mode:lr-tb;text-anchor:start;fill:#000000;fill-opacity:1;stroke:none;stroke-width:1px;stroke-linecap:butt;stroke-linejoin:miter;stroke-opacity:1"
       transform="matrix(7.015748,0,0,7.015748,64.501877,382.56306)">
      <path
         id="path4147"
         style="font-style:normal;font-variant:normal;font-weight:500;font-stretch:normal;font-size:180px;line-height:125%;font-family:'Apple Chancery';-inkscape-font-specification:'Apple Chancery, Medium';text-align:start;writing-mode:lr-tb;text-anchor:start;fill:#ffffff;fill-opacity:1"
         d="M 48.392578,-1.9500877 43.998047,36.897569 q -1.142578,10.458984 -1.142578,15.46875 0,9.93164 6.767578,9.93164 7.294922,0 15.117187,-11.953125 1.31836,1.669922 1.31836,2.988281 0,4.921875 -8.701172,11.777344 -8.613281,6.855469 -14.853516,6.855469 -12.480469,0 -12.480469,-15.996094 0,-5.888672 1.494141,-19.072265 l 4.306641,-38.8476567 -18.544922,0 L 27.5625,-12.1454 l 9.404297,0 1.845703,-15.996094 12.919922,-4.306641 -2.197266,20.302735 37.265625,0 -10.283203,10.1953123 -28.125,0 z" />
    </g>
  </g>
</svg>
